<svg width="358" height="527" viewBox="0 0 358 527" fill="none" xmlns="http://www.w3.org/2000/svg">
<path d="M285.333 243.157C267.876 242.792 267.295 258.496 269.186 266.393C285.246 237.599 309.627 248.017 319.81 256.825C331.68 239.33 352.686 247.713 361.705 254.091C364.324 243.461 367.99 219.83 361.705 210.353C355.421 200.877 345.995 203.064 342.067 205.342C318.675 187.482 302.935 199.115 297.989 207.164C290.134 208.986 286.642 210.353 285.333 220.377C284.286 228.395 293.334 231.615 297.989 232.222C310.907 243.886 317.919 235.563 319.81 229.944C327.84 235.776 320.246 242.398 315.446 244.979C303.226 246.802 307.154 243.613 285.333 243.157Z" fill="#D9D9D9"/>
<path d="M352.105 45.8791C353.85 41.1408 359.524 40.8675 362.142 41.3231C366.215 62.4329 371.656 105.017 360.833 106.475C350.01 107.933 350.504 116.802 352.104 121.054C346.867 119.596 343.231 125.914 342.067 129.255C334.735 126.339 330.575 131.381 329.411 134.267C321.73 124.426 314.573 131.381 311.954 136.089C308.812 131.351 302.499 131.989 299.735 132.9C275.645 120.143 269.477 136.393 269.622 146.568C254.61 144.381 250.565 155.984 250.42 162.059C240.295 158.779 235 171.779 234.273 175.271C227.639 163.608 205.906 160.996 195.868 162.97C194.472 140.008 220.453 135.937 232.963 138.367C229.909 131.989 226.417 119.687 243.874 109.664C257.839 101.645 268.895 106.323 272.677 111.487C278.612 104.197 281.405 108.905 282.715 111.942C280.62 89.7085 304.39 91.8954 315.882 94.1735C313.438 89.4352 318.064 88.5543 320.683 88.7062C313.351 80.6875 320.828 74.7342 325.483 72.7599C313.264 43.9656 338.139 42.8418 352.105 45.8791Z" fill="url(#paint0_linear_15_7)"/>
<path d="M280.969 70.9375C235.931 85.1525 237.473 102.678 243.874 109.664C262.029 102.739 270.349 110.727 272.241 115.587C275.034 110.849 281.551 111.79 284.46 112.853C283.064 92.0777 304.826 92.0473 315.882 94.6291C314.835 89.1618 318.937 88.4025 321.119 88.7062C314.485 80.323 321.264 74.5824 325.483 72.7599C315.707 54.9002 332.757 46.1829 342.503 44.0567C344.947 22.5521 332.175 19.3021 325.483 20.3652C299.647 -13.1675 272.822 2.14088 262.639 13.9867C259.439 13.5311 250.769 13.3488 241.692 16.2647C230.345 19.9095 225.544 48.6128 243.874 51.802C262.203 54.9913 258.275 44.0567 268.749 39.9562C279.223 35.8558 289.697 44.9679 289.697 56.3581C289.697 65.4702 283.878 69.8744 280.969 70.9375Z" fill="url(#paint1_linear_15_7)"/>
<path d="M352.104 120.599C347.217 110.758 356.76 106.475 362.142 105.564V143.379C344.336 138.641 333.484 152.643 330.284 160.236C326.792 158.779 323.592 161.451 322.428 162.97C312.653 153.129 303.517 158.262 300.171 162.059C273.288 149.302 263.949 167.982 262.64 178.916C245.881 170.898 240.528 179.524 239.946 184.839C235.407 183.381 232.527 186.965 231.654 188.94C226.766 178.37 208.67 178.764 200.232 180.283C183.125 184.657 183.794 199.419 186.267 206.253C180.332 206.253 177.102 210.505 176.23 212.631C153.885 206.435 150.045 218.858 150.917 225.844C131.366 230.582 141.025 240.575 148.299 244.979C113.822 265.937 103.348 249.535 100.73 247.257C98.6351 245.435 99.8571 244.068 100.73 243.613C110.855 241.79 111.64 232.222 110.767 227.666H115.132C143.062 226.937 147.135 212.479 145.681 205.342L153.1 203.519C155.194 182.014 172.011 179.979 180.157 181.65C180.157 167.071 191.504 160.692 197.177 159.325C219.522 156.409 232.091 163.881 235.582 167.982C238.724 159.599 246.492 160.54 249.984 162.059C250.682 148.208 260.894 141.101 267.004 141.557C269.098 118.959 295.807 122.877 300.171 130.622C305.059 127.342 309.772 133.204 311.518 135.634C318.151 123.97 325.92 129.863 328.975 134.267C330.72 125.884 338.43 127.433 342.067 129.255C341.369 122.33 348.468 120.599 352.104 120.599Z" fill="url(#paint2_linear_15_7)"/>
<path d="M330.284 159.781C337.266 140.463 355.305 141.101 363.451 143.835C372.179 185.75 383.963 265.664 361.269 249.991C338.576 234.318 323.883 246.194 319.373 254.091C289.348 235.867 273.695 253.18 269.622 264.115V251.813C246.579 224.113 217.543 232.07 205.906 239.512C183.212 223.475 157.464 236.475 147.426 244.979C130.319 234.045 142.044 226.755 150.045 224.477C150.045 206.617 167.501 208.835 176.229 212.176C176.229 205.979 182.339 205.038 185.394 205.342C179.284 193.04 189.322 181.65 203.724 177.55C215.245 174.269 227.144 182.865 231.654 187.573C233.051 182.106 237.764 182.865 239.946 183.928C242.39 171.171 255.802 174.36 262.203 177.55C266.742 151.307 288.824 154.769 299.735 160.692C308.114 150.851 318.646 158.414 322.428 162.515C323.825 158.87 328.247 159.173 330.284 159.781Z" fill="url(#paint3_linear_15_7)"/>
<path d="M145.077 245.574C166.74 222.186 196.719 230.078 209.001 236.947C256.955 205.96 272.408 229.837 274.257 251.951C284.142 224.729 307.998 238.176 320.328 246.483C332.758 223.863 360.672 242.059 371.474 250.366C372.214 319.378 372.273 457.211 366.591 456.444C360.909 455.677 358.009 462.195 357.269 465.55C355.493 464.4 350.314 465.071 347.947 465.55C328.769 439.862 305.331 454.847 296.008 465.55C290.326 466.317 288.314 461.397 288.018 458.841C264.579 459.607 260.791 447.019 261.827 440.629C243.182 437.753 244.07 426.251 245.402 416.187C246.467 408.136 256.204 404.206 260.939 403.247C280.471 378.71 295.712 397.816 300.892 410.436C305.863 398.934 321.608 398.615 328.858 399.893C343.774 391.841 335.073 381.521 328.858 377.368C323.531 382.352 319.536 379.445 318.204 377.368C305.419 385.036 294.233 383.119 290.238 381.202C266.089 367.016 278.696 343.66 288.018 333.756C245.402 347.175 227.349 317.941 223.65 301.646C225.071 289.377 210.333 280.239 202.786 277.204C179.347 271.837 157.507 301.486 149.516 316.982C107.256 350.338 70.3513 328.963 57.1819 314.107C25.2199 316.407 19.0051 293.339 19.8929 281.517C-10.6485 270.399 0.656587 246.532 10.1268 235.989C3.46805 231.196 -4.07851 215.381 7.46329 192.856C16.6967 174.836 39.4252 173.207 49.6353 174.644C85.5037 140.522 115.483 165.539 125.989 182.312C141.97 180.395 148.333 194.933 149.516 202.441C150.937 223.145 125.545 228.64 112.671 228.8C115.157 238.001 106.604 243.816 102.017 245.574C110.185 263.21 134.127 252.922 145.077 245.574Z" fill="url(#paint4_linear_15_7)"/>
<path d="M351.668 453.192C352.366 444.444 358.942 443.472 362.142 444.08L361.269 511.509C345.209 506.771 339.739 512.876 339.012 516.521C336.83 510.143 321.555 496.019 300.171 499.664C283.064 502.579 278.205 513.939 277.914 519.255C269.186 516.339 263.221 523.203 261.33 527C259.585 521.897 250.129 519.71 245.619 519.255C245.969 509.778 255.075 507.105 259.585 506.953C252.602 481.804 274.423 477.946 286.206 479.161C286.206 476.245 289.988 474.605 291.879 474.15C283.5 466.495 288.97 456.988 292.752 453.192C313.351 428.042 335.375 442.713 343.813 453.192C347.304 450.276 350.504 451.977 351.668 453.192Z" fill="url(#paint5_linear_15_7)"/>
<defs>
<linearGradient id="paint0_linear_15_7" x1="367.176" y1="104.802" x2="197.121" y2="104.802" gradientUnits="userSpaceOnUse">
<stop stop-color="white"/>
<stop offset="1" stop-color="#213D66"/>
</linearGradient>
<linearGradient id="paint1_linear_15_7" x1="287.221" y1="0" x2="287.221" y2="115.587" gradientUnits="userSpaceOnUse">
<stop stop-color="white"/>
<stop offset="1" stop-color="#2C446E"/>
</linearGradient>
<linearGradient id="paint2_linear_15_7" x1="230.858" y1="105.564" x2="230.858" y2="255.512" gradientUnits="userSpaceOnUse">
<stop stop-color="white"/>
<stop offset="1" stop-color="#213D66"/>
</linearGradient>
<linearGradient id="paint3_linear_15_7" x1="256.515" y1="264.115" x2="256.515" y2="142.421" gradientUnits="userSpaceOnUse">
<stop stop-color="#213D66"/>
<stop offset="1" stop-color="white"/>
</linearGradient>
<linearGradient id="paint4_linear_15_7" x1="0" y1="311.635" x2="371.825" y2="311.635" gradientUnits="userSpaceOnUse">
<stop stop-color="white"/>
<stop offset="1" stop-color="#213D66"/>
</linearGradient>
<linearGradient id="paint5_linear_15_7" x1="303.881" y1="439.305" x2="303.881" y2="527" gradientUnits="userSpaceOnUse">
<stop stop-color="white"/>
<stop offset="1" stop-color="#213D66"/>
</linearGradient>
</defs>
</svg>
