<svg width="253" height="92" viewBox="0 0 253 92" fill="none" xmlns="http://www.w3.org/2000/svg">
<path d="M104.5 27.76C92.5 42.16 100.833 53.76 106.5 57.76C127.3 34.96 143.5 35.26 149 38.26C156.2 20.66 170.667 15.26 177 14.76C171.8 -3.23997 151.5 -1.07331 142 2.26003C131.6 5.06003 129 17.76 129 23.76C118.2 20.56 108.167 25.0934 104.5 27.76Z" fill="url(#paint0_linear_19_51)"/>
<path d="M56 46.2601C36.4 42.6601 10.5 49.7601 0 53.7601C15.5 53.0934 49.3 53.2601 60.5 59.2601C74.5 66.7601 75.5 70.7601 85 74.7601C92.6 77.9601 109.167 77.0934 116.5 76.2601C118 75.9267 122.4 75.7601 128 77.7601C135 80.2601 134.5 92.2601 155 89.7601C171.4 87.7601 176.5 76.2601 177 70.7601C185.4 79.9601 185.5 84.26 208.5 89.7601C237 93.76 244.045 87.76 249.5 77.7601C255.5 66.76 252.8 53.8601 242 42.2601C231.2 30.6601 217.833 29.2601 208.5 33.7601C212.167 27.0934 205 13.76 185 13.76C163.948 13.7601 152.5 27.5934 148.5 37.2601C130.5 32.0601 114 48.4267 108 57.2601C95.6 63.2601 82.8333 57.4267 78 53.7601C72 50.1601 60.8333 47.2601 56 46.2601Z" fill="url(#paint1_linear_19_51)"/>
<defs>
<linearGradient id="paint0_linear_19_51" x1="137.683" y1="0" x2="137.683" y2="57.76" gradientUnits="userSpaceOnUse">
<stop stop-color="white"/>
<stop offset="1" stop-color="#213D66"/>
</linearGradient>
<linearGradient id="paint1_linear_19_51" x1="250.856" y1="53.1687" x2="-1.49522e-05" y2="53.1687" gradientUnits="userSpaceOnUse">
<stop stop-color="white"/>
<stop offset="0.389423" stop-color="#A9B3C3"/>
<stop offset="1" stop-color="#213D66"/>
</linearGradient>
</defs>
</svg>
